<svg width="1056" height="411" viewBox="0 0 1056 411" fill="none" xmlns="http://www.w3.org/2000/svg">
<rect x="0.25" y="0.25" width="28.8333" height="28.8333" stroke="white" stroke-width="0.5"/>
<rect x="0.25" y="29.5833" width="28.8333" height="28.8333" stroke="white" stroke-width="0.5"/>
<rect x="0.25" y="58.9167" width="28.8333" height="28.8333" stroke="white" stroke-width="0.5"/>
<rect x="0.25" y="88.25" width="28.8333" height="28.8333" stroke="white" stroke-width="0.5"/>
<rect x="0.25" y="117.583" width="28.8333" height="28.8333" stroke="white" stroke-width="0.5"/>
<rect x="0.25" y="146.917" width="28.8333" height="28.8333" stroke="white" stroke-width="0.5"/>
<rect x="0.25" y="176.25" width="28.8333" height="28.8333" stroke="white" stroke-width="0.5"/>
<rect x="0.25" y="205.583" width="28.8333" height="28.8333" stroke="white" stroke-width="0.5"/>
<rect x="0.25" y="234.917" width="28.8333" height="28.8333" stroke="white" stroke-width="0.5"/>
<rect x="0.25" y="264.25" width="28.8333" height="28.8333" stroke="white" stroke-width="0.5"/>
<rect x="0.25" y="293.583" width="28.8333" height="28.8333" stroke="white" stroke-width="0.5"/>
<rect x="0.25" y="322.917" width="28.8333" height="28.8333" stroke="white" stroke-width="0.5"/>
<rect x="0.25" y="352.25" width="28.8333" height="28.8333" stroke="white" stroke-width="0.5"/>
<rect x="0.25" y="381.583" width="28.8333" height="28.8333" stroke="white" stroke-width="0.5"/>
<rect x="29.5834" y="0.25" width="28.8333" height="28.8333" stroke="white" stroke-width="0.5"/>
<rect x="29.5834" y="29.5833" width="28.8333" height="28.8333" stroke="white" stroke-width="0.5"/>
<rect x="29.5834" y="58.9167" width="28.8333" height="28.8333" stroke="white" stroke-width="0.5"/>
<rect x="29.5834" y="88.25" width="28.8333" height="28.8333" stroke="white" stroke-width="0.5"/>
<rect x="29.5834" y="117.583" width="28.8333" height="28.8333" stroke="white" stroke-width="0.5"/>
<rect x="29.5834" y="146.917" width="28.8333" height="28.8333" stroke="white" stroke-width="0.5"/>
<rect x="29.5834" y="176.25" width="28.8333" height="28.8333" stroke="white" stroke-width="0.5"/>
<rect x="29.5834" y="205.583" width="28.8333" height="28.8333" stroke="white" stroke-width="0.5"/>
<rect x="29.5834" y="234.917" width="28.8333" height="28.8333" stroke="white" stroke-width="0.5"/>
<rect x="29.5834" y="264.25" width="28.8333" height="28.8333" stroke="white" stroke-width="0.5"/>
<rect x="29.5834" y="293.583" width="28.8333" height="28.8333" stroke="white" stroke-width="0.5"/>
<rect x="29.5834" y="322.917" width="28.8333" height="28.8333" stroke="white" stroke-width="0.5"/>
<rect x="29.5834" y="352.25" width="28.8333" height="28.8333" stroke="white" stroke-width="0.5"/>
<rect x="29.5834" y="381.583" width="28.8333" height="28.8333" stroke="white" stroke-width="0.5"/>
<rect x="58.9166" y="0.25" width="28.8333" height="28.8333" stroke="white" stroke-width="0.5"/>
<rect x="58.9166" y="29.5833" width="28.8333" height="28.8333" stroke="white" stroke-width="0.5"/>
<rect x="58.9166" y="58.9167" width="28.8333" height="28.8333" stroke="white" stroke-width="0.5"/>
<rect x="58.9166" y="88.25" width="28.8333" height="28.8333" stroke="white" stroke-width="0.5"/>
<rect x="58.9166" y="117.583" width="28.8333" height="28.8333" stroke="white" stroke-width="0.5"/>
<rect x="58.9166" y="146.917" width="28.8333" height="28.8333" stroke="white" stroke-width="0.5"/>
<rect x="58.9166" y="176.25" width="28.8333" height="28.8333" stroke="white" stroke-width="0.5"/>
<rect x="58.9166" y="205.583" width="28.8333" height="28.8333" stroke="white" stroke-width="0.5"/>
<rect x="58.9166" y="234.917" width="28.8333" height="28.8333" stroke="white" stroke-width="0.5"/>
<rect x="58.9166" y="264.25" width="28.8333" height="28.8333" stroke="white" stroke-width="0.5"/>
<rect x="58.9166" y="293.583" width="28.8333" height="28.8333" stroke="white" stroke-width="0.5"/>
<rect x="58.9166" y="322.917" width="28.8333" height="28.8333" stroke="white" stroke-width="0.5"/>
<rect x="58.9166" y="352.25" width="28.8333" height="28.8333" stroke="white" stroke-width="0.5"/>
<rect x="58.9166" y="381.583" width="28.8333" height="28.8333" stroke="white" stroke-width="0.5"/>
<rect x="88.25" y="0.25" width="28.8333" height="28.8333" stroke="white" stroke-width="0.5"/>
<rect x="88.25" y="29.5833" width="28.8333" height="28.8333" stroke="white" stroke-width="0.5"/>
<rect x="88.25" y="58.9167" width="28.8333" height="28.8333" stroke="white" stroke-width="0.5"/>
<rect x="88.25" y="88.25" width="28.8333" height="28.8333" stroke="white" stroke-width="0.5"/>
<rect x="88.25" y="117.583" width="28.8333" height="28.8333" stroke="white" stroke-width="0.5"/>
<rect x="88.25" y="146.917" width="28.8333" height="28.8333" stroke="white" stroke-width="0.5"/>
<rect x="88.25" y="176.25" width="28.8333" height="28.8333" stroke="white" stroke-width="0.5"/>
<rect x="88.25" y="205.583" width="28.8333" height="28.8333" stroke="white" stroke-width="0.5"/>
<rect x="88.25" y="234.917" width="28.8333" height="28.8333" stroke="white" stroke-width="0.5"/>
<rect x="88.25" y="264.25" width="28.8333" height="28.8333" stroke="white" stroke-width="0.5"/>
<rect x="88.25" y="293.583" width="28.8333" height="28.8333" stroke="white" stroke-width="0.5"/>
<rect x="88.25" y="322.917" width="28.8333" height="28.8333" stroke="white" stroke-width="0.5"/>
<rect x="88.25" y="352.25" width="28.8333" height="28.8333" stroke="white" stroke-width="0.5"/>
<rect x="88.25" y="381.583" width="28.8333" height="28.8333" stroke="white" stroke-width="0.5"/>
<rect x="117.583" y="0.25" width="28.8333" height="28.8333" stroke="white" stroke-width="0.5"/>
<rect x="117.583" y="29.5833" width="28.8333" height="28.8333" stroke="white" stroke-width="0.5"/>
<rect x="117.583" y="58.9167" width="28.8333" height="28.8333" stroke="white" stroke-width="0.5"/>
<rect x="117.583" y="88.25" width="28.8333" height="28.8333" stroke="white" stroke-width="0.5"/>
<rect x="117.583" y="117.583" width="28.8333" height="28.8333" stroke="white" stroke-width="0.5"/>
<rect x="117.583" y="146.917" width="28.8333" height="28.8333" stroke="white" stroke-width="0.5"/>
<rect x="117.583" y="176.25" width="28.8333" height="28.8333" stroke="white" stroke-width="0.5"/>
<rect x="117.583" y="205.583" width="28.8333" height="28.8333" stroke="white" stroke-width="0.5"/>
<rect x="117.583" y="234.917" width="28.8333" height="28.8333" stroke="white" stroke-width="0.5"/>
<rect x="117.583" y="264.25" width="28.8333" height="28.8333" stroke="white" stroke-width="0.5"/>
<rect x="117.583" y="293.583" width="28.8333" height="28.8333" stroke="white" stroke-width="0.5"/>
<rect x="117.583" y="322.917" width="28.8333" height="28.8333" stroke="white" stroke-width="0.5"/>
<rect x="117.583" y="352.25" width="28.8333" height="28.8333" stroke="white" stroke-width="0.5"/>
<rect x="117.583" y="381.583" width="28.8333" height="28.8333" stroke="white" stroke-width="0.5"/>
<rect x="146.917" y="0.25" width="28.8333" height="28.8333" stroke="white" stroke-width="0.5"/>
<rect x="146.917" y="29.5833" width="28.8333" height="28.8333" stroke="white" stroke-width="0.5"/>
<rect x="146.917" y="58.9167" width="28.8333" height="28.8333" stroke="white" stroke-width="0.5"/>
<rect x="146.917" y="88.25" width="28.8333" height="28.8333" stroke="white" stroke-width="0.5"/>
<rect x="146.917" y="117.583" width="28.8333" height="28.8333" stroke="white" stroke-width="0.5"/>
<rect x="146.917" y="146.917" width="28.8333" height="28.8333" stroke="white" stroke-width="0.5"/>
<rect x="146.917" y="176.25" width="28.8333" height="28.8333" stroke="white" stroke-width="0.5"/>
<rect x="146.917" y="205.583" width="28.8333" height="28.8333" stroke="white" stroke-width="0.5"/>
<rect x="146.917" y="234.917" width="28.8333" height="28.8333" stroke="white" stroke-width="0.5"/>
<rect x="146.917" y="264.25" width="28.8333" height="28.8333" stroke="white" stroke-width="0.5"/>
<rect x="146.917" y="293.583" width="28.8333" height="28.8333" stroke="white" stroke-width="0.5"/>
<rect x="146.917" y="322.917" width="28.8333" height="28.8333" stroke="white" stroke-width="0.5"/>
<rect x="146.917" y="352.25" width="28.8333" height="28.8333" stroke="white" stroke-width="0.5"/>
<rect x="146.917" y="381.583" width="28.8333" height="28.8333" stroke="white" stroke-width="0.5"/>
<rect x="176.25" y="0.25" width="28.8333" height="28.8333" stroke="white" stroke-width="0.5"/>
<rect x="176.25" y="29.5833" width="28.8333" height="28.8333" stroke="white" stroke-width="0.5"/>
<rect x="176.25" y="58.9167" width="28.8333" height="28.8333" stroke="white" stroke-width="0.5"/>
<rect x="176.25" y="88.25" width="28.8333" height="28.8333" stroke="white" stroke-width="0.5"/>
<rect x="176.25" y="117.583" width="28.8333" height="28.8333" stroke="white" stroke-width="0.5"/>
<rect x="176.25" y="146.917" width="28.8333" height="28.8333" stroke="white" stroke-width="0.5"/>
<rect x="176.25" y="176.25" width="28.8333" height="28.8333" stroke="white" stroke-width="0.5"/>
<rect x="176.25" y="205.583" width="28.8333" height="28.8333" stroke="white" stroke-width="0.5"/>
<rect x="176.25" y="234.917" width="28.8333" height="28.8333" stroke="white" stroke-width="0.5"/>
<rect x="176.25" y="264.25" width="28.8333" height="28.8333" stroke="white" stroke-width="0.5"/>
<rect x="176.25" y="293.583" width="28.8333" height="28.8333" stroke="white" stroke-width="0.5"/>
<rect x="176.25" y="322.917" width="28.8333" height="28.8333" stroke="white" stroke-width="0.5"/>
<rect x="176.25" y="352.25" width="28.8333" height="28.8333" stroke="white" stroke-width="0.5"/>
<rect x="176.25" y="381.583" width="28.8333" height="28.8333" stroke="white" stroke-width="0.5"/>
<rect x="205.583" y="0.25" width="28.8333" height="28.8333" stroke="white" stroke-width="0.5"/>
<rect x="205.583" y="29.5833" width="28.8333" height="28.8333" stroke="white" stroke-width="0.5"/>
<rect x="205.583" y="58.9167" width="28.8333" height="28.8333" stroke="white" stroke-width="0.5"/>
<rect x="205.583" y="88.25" width="28.8333" height="28.8333" stroke="white" stroke-width="0.5"/>
<rect x="205.583" y="117.583" width="28.8333" height="28.8333" stroke="white" stroke-width="0.5"/>
<rect x="205.583" y="146.917" width="28.8333" height="28.8333" stroke="white" stroke-width="0.5"/>
<rect x="205.583" y="176.25" width="28.8333" height="28.8333" stroke="white" stroke-width="0.5"/>
<rect x="205.583" y="205.583" width="28.8333" height="28.8333" stroke="white" stroke-width="0.5"/>
<rect x="205.583" y="234.917" width="28.8333" height="28.8333" stroke="white" stroke-width="0.5"/>
<rect x="205.583" y="264.25" width="28.8333" height="28.8333" stroke="white" stroke-width="0.5"/>
<rect x="205.583" y="293.583" width="28.8333" height="28.8333" stroke="white" stroke-width="0.5"/>
<rect x="205.583" y="322.917" width="28.8333" height="28.8333" stroke="white" stroke-width="0.5"/>
<rect x="205.583" y="352.25" width="28.8333" height="28.8333" stroke="white" stroke-width="0.5"/>
<rect x="205.583" y="381.583" width="28.8333" height="28.8333" stroke="white" stroke-width="0.5"/>
<rect x="234.917" y="0.25" width="28.8333" height="28.8333" stroke="white" stroke-width="0.5"/>
<rect x="234.917" y="29.5833" width="28.8333" height="28.8333" stroke="white" stroke-width="0.5"/>
<rect x="234.917" y="58.9167" width="28.8333" height="28.8333" stroke="white" stroke-width="0.5"/>
<rect x="234.917" y="88.25" width="28.8333" height="28.8333" stroke="white" stroke-width="0.5"/>
<rect x="234.917" y="117.583" width="28.8333" height="28.8333" stroke="white" stroke-width="0.5"/>
<rect x="234.917" y="146.917" width="28.8333" height="28.8333" stroke="white" stroke-width="0.5"/>
<rect x="234.917" y="176.25" width="28.8333" height="28.8333" stroke="white" stroke-width="0.5"/>
<rect x="234.917" y="205.583" width="28.8333" height="28.8333" stroke="white" stroke-width="0.5"/>
<rect x="234.917" y="234.917" width="28.8333" height="28.8333" stroke="white" stroke-width="0.5"/>
<rect x="234.917" y="264.25" width="28.8333" height="28.8333" stroke="white" stroke-width="0.5"/>
<rect x="234.917" y="293.583" width="28.8333" height="28.8333" stroke="white" stroke-width="0.5"/>
<rect x="234.917" y="322.917" width="28.8333" height="28.8333" stroke="white" stroke-width="0.5"/>
<rect x="234.917" y="352.25" width="28.8333" height="28.8333" stroke="white" stroke-width="0.5"/>
<rect x="234.917" y="381.583" width="28.8333" height="28.8333" stroke="white" stroke-width="0.5"/>
<rect x="264.25" y="0.25" width="28.8333" height="28.8333" stroke="white" stroke-width="0.5"/>
<rect x="264.25" y="29.5833" width="28.8333" height="28.8333" stroke="white" stroke-width="0.5"/>
<rect x="264.25" y="58.9167" width="28.8333" height="28.8333" stroke="white" stroke-width="0.5"/>
<rect x="264.25" y="88.25" width="28.8333" height="28.8333" stroke="white" stroke-width="0.5"/>
<rect x="264.25" y="117.583" width="28.8333" height="28.8333" stroke="white" stroke-width="0.5"/>
<rect x="264.25" y="146.917" width="28.8333" height="28.8333" stroke="white" stroke-width="0.5"/>
<rect x="264.25" y="176.25" width="28.8333" height="28.8333" stroke="white" stroke-width="0.5"/>
<rect x="264.25" y="205.583" width="28.8333" height="28.8333" stroke="white" stroke-width="0.5"/>
<rect x="264.25" y="234.917" width="28.8333" height="28.8333" stroke="white" stroke-width="0.5"/>
<rect x="264.25" y="264.25" width="28.8333" height="28.8333" stroke="white" stroke-width="0.5"/>
<rect x="264.25" y="293.583" width="28.8333" height="28.8333" stroke="white" stroke-width="0.5"/>
<rect x="264.25" y="322.917" width="28.8333" height="28.8333" stroke="white" stroke-width="0.5"/>
<rect x="264.25" y="352.25" width="28.8333" height="28.8333" stroke="white" stroke-width="0.5"/>
<rect x="264.25" y="381.583" width="28.8333" height="28.8333" stroke="white" stroke-width="0.5"/>
<rect x="293.583" y="0.25" width="28.8333" height="28.8333" stroke="white" stroke-width="0.5"/>
<rect x="293.583" y="29.5833" width="28.8333" height="28.8333" stroke="white" stroke-width="0.5"/>
<rect x="293.583" y="58.9167" width="28.8333" height="28.8333" stroke="white" stroke-width="0.5"/>
<rect x="293.583" y="88.25" width="28.8333" height="28.8333" stroke="white" stroke-width="0.5"/>
<rect x="293.583" y="117.583" width="28.8333" height="28.8333" stroke="white" stroke-width="0.5"/>
<rect x="293.583" y="146.917" width="28.8333" height="28.8333" stroke="white" stroke-width="0.5"/>
<rect x="293.583" y="176.25" width="28.8333" height="28.8333" stroke="white" stroke-width="0.5"/>
<rect x="293.583" y="205.583" width="28.8333" height="28.8333" stroke="white" stroke-width="0.5"/>
<rect x="293.583" y="234.917" width="28.8333" height="28.8333" stroke="white" stroke-width="0.5"/>
<rect x="293.583" y="264.25" width="28.8333" height="28.8333" stroke="white" stroke-width="0.5"/>
<rect x="293.583" y="293.583" width="28.8333" height="28.8333" stroke="white" stroke-width="0.5"/>
<rect x="293.583" y="322.917" width="28.8333" height="28.8333" stroke="white" stroke-width="0.5"/>
<rect x="293.583" y="352.25" width="28.8333" height="28.8333" stroke="white" stroke-width="0.5"/>
<rect x="293.583" y="381.583" width="28.8333" height="28.8333" stroke="white" stroke-width="0.5"/>
<rect x="322.917" y="0.25" width="28.8333" height="28.8333" stroke="white" stroke-width="0.5"/>
<rect x="322.917" y="29.5833" width="28.8333" height="28.8333" stroke="white" stroke-width="0.5"/>
<rect x="322.917" y="58.9167" width="28.8333" height="28.8333" stroke="white" stroke-width="0.5"/>
<rect x="322.917" y="88.25" width="28.8333" height="28.8333" stroke="white" stroke-width="0.5"/>
<rect x="322.917" y="117.583" width="28.8333" height="28.8333" stroke="white" stroke-width="0.5"/>
<rect x="322.917" y="146.917" width="28.8333" height="28.8333" stroke="white" stroke-width="0.5"/>
<rect x="322.917" y="176.25" width="28.8333" height="28.8333" stroke="white" stroke-width="0.5"/>
<rect x="322.917" y="205.583" width="28.8333" height="28.8333" stroke="white" stroke-width="0.5"/>
<rect x="322.917" y="234.917" width="28.8333" height="28.8333" stroke="white" stroke-width="0.5"/>
<rect x="322.917" y="264.25" width="28.8333" height="28.8333" stroke="white" stroke-width="0.5"/>
<rect x="322.917" y="293.583" width="28.8333" height="28.8333" stroke="white" stroke-width="0.5"/>
<rect x="322.917" y="322.917" width="28.8333" height="28.8333" stroke="white" stroke-width="0.5"/>
<rect x="322.917" y="352.25" width="28.8333" height="28.8333" stroke="white" stroke-width="0.5"/>
<rect x="322.917" y="381.583" width="28.8333" height="28.8333" stroke="white" stroke-width="0.5"/>
<rect x="352.25" y="0.25" width="28.8333" height="28.8333" stroke="white" stroke-width="0.5"/>
<rect x="352.25" y="29.5833" width="28.8333" height="28.8333" stroke="white" stroke-width="0.5"/>
<rect x="352.25" y="58.9167" width="28.8333" height="28.8333" stroke="white" stroke-width="0.5"/>
<rect x="352.25" y="88.25" width="28.8333" height="28.8333" stroke="white" stroke-width="0.5"/>
<rect x="352.25" y="117.583" width="28.8333" height="28.8333" stroke="white" stroke-width="0.5"/>
<rect x="352.25" y="146.917" width="28.8333" height="28.8333" stroke="white" stroke-width="0.5"/>
<rect x="352.25" y="176.25" width="28.8333" height="28.8333" stroke="white" stroke-width="0.5"/>
<rect x="352.25" y="205.583" width="28.8333" height="28.8333" stroke="white" stroke-width="0.5"/>
<rect x="352.25" y="234.917" width="28.8333" height="28.8333" stroke="white" stroke-width="0.5"/>
<rect x="352.25" y="264.25" width="28.8333" height="28.8333" stroke="white" stroke-width="0.5"/>
<rect x="352.25" y="293.583" width="28.8333" height="28.8333" stroke="white" stroke-width="0.5"/>
<rect x="352.25" y="322.917" width="28.8333" height="28.8333" stroke="white" stroke-width="0.5"/>
<rect x="352.25" y="352.25" width="28.8333" height="28.8333" stroke="white" stroke-width="0.5"/>
<rect x="352.25" y="381.583" width="28.8333" height="28.8333" stroke="white" stroke-width="0.5"/>
<rect x="381.583" y="0.25" width="28.8333" height="28.8333" stroke="white" stroke-width="0.5"/>
<rect x="381.583" y="29.5833" width="28.8333" height="28.8333" stroke="white" stroke-width="0.5"/>
<rect x="381.583" y="58.9167" width="28.8333" height="28.8333" stroke="white" stroke-width="0.5"/>
<rect x="381.583" y="88.25" width="28.8333" height="28.8333" stroke="white" stroke-width="0.5"/>
<rect x="381.583" y="117.583" width="28.8333" height="28.8333" stroke="white" stroke-width="0.5"/>
<rect x="381.583" y="146.917" width="28.8333" height="28.8333" stroke="white" stroke-width="0.5"/>
<rect x="381.583" y="176.25" width="28.8333" height="28.8333" stroke="white" stroke-width="0.5"/>
<rect x="381.583" y="205.583" width="28.8333" height="28.8333" stroke="white" stroke-width="0.5"/>
<rect x="381.583" y="234.917" width="28.8333" height="28.8333" stroke="white" stroke-width="0.5"/>
<rect x="381.583" y="264.25" width="28.8333" height="28.8333" stroke="white" stroke-width="0.5"/>
<rect x="381.583" y="293.583" width="28.8333" height="28.8333" stroke="white" stroke-width="0.5"/>
<rect x="381.583" y="322.917" width="28.8333" height="28.8333" stroke="white" stroke-width="0.5"/>
<rect x="381.583" y="352.25" width="28.8333" height="28.8333" stroke="white" stroke-width="0.5"/>
<rect x="381.583" y="381.583" width="28.8333" height="28.8333" stroke="white" stroke-width="0.5"/>
<rect x="410.917" y="0.25" width="28.8333" height="28.8333" stroke="white" stroke-width="0.5"/>
<rect x="410.917" y="29.5833" width="28.8333" height="28.8333" stroke="white" stroke-width="0.5"/>
<rect x="410.917" y="58.9167" width="28.8333" height="28.8333" stroke="white" stroke-width="0.5"/>
<rect x="410.917" y="88.25" width="28.8333" height="28.8333" stroke="white" stroke-width="0.5"/>
<rect x="410.917" y="117.583" width="28.8333" height="28.8333" stroke="white" stroke-width="0.5"/>
<rect x="410.917" y="146.917" width="28.8333" height="28.8333" stroke="white" stroke-width="0.5"/>
<rect x="410.917" y="176.25" width="28.8333" height="28.8333" stroke="white" stroke-width="0.5"/>
<rect x="410.917" y="205.583" width="28.8333" height="28.8333" stroke="white" stroke-width="0.5"/>
<rect x="410.917" y="234.917" width="28.8333" height="28.8333" stroke="white" stroke-width="0.5"/>
<rect x="410.917" y="264.25" width="28.8333" height="28.8333" stroke="white" stroke-width="0.5"/>
<rect x="410.917" y="293.583" width="28.8333" height="28.8333" stroke="white" stroke-width="0.5"/>
<rect x="410.917" y="322.917" width="28.8333" height="28.8333" stroke="white" stroke-width="0.5"/>
<rect x="410.917" y="352.25" width="28.8333" height="28.8333" stroke="white" stroke-width="0.5"/>
<rect x="410.917" y="381.583" width="28.8333" height="28.8333" stroke="white" stroke-width="0.5"/>
<rect x="440.25" y="0.25" width="28.8333" height="28.8333" stroke="white" stroke-width="0.5"/>
<rect x="440.25" y="29.5833" width="28.8333" height="28.8333" stroke="white" stroke-width="0.5"/>
<rect x="440.25" y="58.9167" width="28.8333" height="28.8333" stroke="white" stroke-width="0.5"/>
<rect x="440.25" y="88.25" width="28.8333" height="28.8333" stroke="white" stroke-width="0.5"/>
<rect x="440.25" y="117.583" width="28.8333" height="28.8333" stroke="white" stroke-width="0.5"/>
<rect x="440.25" y="146.917" width="28.8333" height="28.8333" stroke="white" stroke-width="0.5"/>
<rect x="440.25" y="176.25" width="28.8333" height="28.8333" stroke="white" stroke-width="0.5"/>
<rect x="440.25" y="205.583" width="28.8333" height="28.8333" stroke="white" stroke-width="0.5"/>
<rect x="440.25" y="234.917" width="28.8333" height="28.8333" stroke="white" stroke-width="0.5"/>
<rect x="440.25" y="264.25" width="28.8333" height="28.8333" stroke="white" stroke-width="0.5"/>
<rect x="440.25" y="293.583" width="28.8333" height="28.8333" stroke="white" stroke-width="0.5"/>
<rect x="440.25" y="322.917" width="28.8333" height="28.8333" stroke="white" stroke-width="0.5"/>
<rect x="440.25" y="352.25" width="28.8333" height="28.8333" stroke="white" stroke-width="0.5"/>
<rect x="440.25" y="381.583" width="28.8333" height="28.8333" stroke="white" stroke-width="0.5"/>
<rect x="469.583" y="0.25" width="28.8333" height="28.8333" stroke="white" stroke-width="0.5"/>
<rect x="469.583" y="29.5833" width="28.8333" height="28.8333" stroke="white" stroke-width="0.5"/>
<rect x="469.583" y="58.9167" width="28.8333" height="28.8333" stroke="white" stroke-width="0.5"/>
<rect x="469.583" y="88.25" width="28.8333" height="28.8333" stroke="white" stroke-width="0.5"/>
<rect x="469.583" y="117.583" width="28.8333" height="28.8333" stroke="white" stroke-width="0.5"/>
<rect x="469.583" y="146.917" width="28.8333" height="28.8333" stroke="white" stroke-width="0.5"/>
<rect x="469.583" y="176.25" width="28.8333" height="28.8333" stroke="white" stroke-width="0.5"/>
<rect x="469.583" y="205.583" width="28.8333" height="28.8333" stroke="white" stroke-width="0.5"/>
<rect x="469.583" y="234.917" width="28.8333" height="28.8333" stroke="white" stroke-width="0.5"/>
<rect x="469.583" y="264.25" width="28.8333" height="28.8333" stroke="white" stroke-width="0.5"/>
<rect x="469.583" y="293.583" width="28.8333" height="28.8333" stroke="white" stroke-width="0.5"/>
<rect x="469.583" y="322.917" width="28.8333" height="28.8333" stroke="white" stroke-width="0.5"/>
<rect x="469.583" y="352.25" width="28.8333" height="28.8333" stroke="white" stroke-width="0.5"/>
<rect x="469.583" y="381.583" width="28.8333" height="28.8333" stroke="white" stroke-width="0.5"/>
<rect x="498.917" y="0.25" width="28.8333" height="28.8333" stroke="white" stroke-width="0.5"/>
<rect x="498.917" y="29.5833" width="28.8333" height="28.8333" stroke="white" stroke-width="0.5"/>
<rect x="498.917" y="58.9167" width="28.8333" height="28.8333" stroke="white" stroke-width="0.5"/>
<rect x="498.917" y="88.25" width="28.8333" height="28.8333" stroke="white" stroke-width="0.5"/>
<rect x="498.917" y="117.583" width="28.8333" height="28.8333" stroke="white" stroke-width="0.5"/>
<rect x="498.917" y="146.917" width="28.8333" height="28.8333" stroke="white" stroke-width="0.5"/>
<rect x="498.917" y="176.25" width="28.8333" height="28.8333" stroke="white" stroke-width="0.5"/>
<rect x="498.917" y="205.583" width="28.8333" height="28.8333" stroke="white" stroke-width="0.5"/>
<rect x="498.917" y="234.917" width="28.8333" height="28.8333" stroke="white" stroke-width="0.5"/>
<rect x="498.917" y="264.25" width="28.8333" height="28.8333" stroke="white" stroke-width="0.5"/>
<rect x="498.917" y="293.583" width="28.8333" height="28.8333" stroke="white" stroke-width="0.5"/>
<rect x="498.917" y="322.917" width="28.8333" height="28.8333" stroke="white" stroke-width="0.5"/>
<rect x="498.917" y="352.25" width="28.8333" height="28.8333" stroke="white" stroke-width="0.5"/>
<rect x="498.917" y="381.583" width="28.8333" height="28.8333" stroke="white" stroke-width="0.5"/>
<rect x="528.25" y="0.25" width="28.8333" height="28.8333" stroke="white" stroke-width="0.5"/>
<rect x="528.25" y="29.5833" width="28.8333" height="28.8333" stroke="white" stroke-width="0.5"/>
<rect x="528.25" y="58.9167" width="28.8333" height="28.8333" stroke="white" stroke-width="0.5"/>
<rect x="528.25" y="88.25" width="28.8333" height="28.8333" stroke="white" stroke-width="0.5"/>
<rect x="528.25" y="117.583" width="28.8333" height="28.8333" stroke="white" stroke-width="0.5"/>
<rect x="528.25" y="146.917" width="28.8333" height="28.8333" stroke="white" stroke-width="0.5"/>
<rect x="528.25" y="176.25" width="28.8333" height="28.8333" stroke="white" stroke-width="0.5"/>
<rect x="528.25" y="205.583" width="28.8333" height="28.8333" stroke="white" stroke-width="0.5"/>
<rect x="528.25" y="234.917" width="28.8333" height="28.8333" stroke="white" stroke-width="0.5"/>
<rect x="528.25" y="264.25" width="28.8333" height="28.8333" stroke="white" stroke-width="0.5"/>
<rect x="528.25" y="293.583" width="28.8333" height="28.8333" stroke="white" stroke-width="0.5"/>
<rect x="528.25" y="322.917" width="28.8333" height="28.8333" stroke="white" stroke-width="0.5"/>
<rect x="528.25" y="352.25" width="28.8333" height="28.8333" stroke="white" stroke-width="0.5"/>
<rect x="528.25" y="381.583" width="28.8333" height="28.8333" stroke="white" stroke-width="0.5"/>
<rect x="557.583" y="0.25" width="28.8333" height="28.8333" stroke="white" stroke-width="0.5"/>
<rect x="557.583" y="29.5833" width="28.8333" height="28.8333" stroke="white" stroke-width="0.5"/>
<rect x="557.583" y="58.9167" width="28.8333" height="28.8333" stroke="white" stroke-width="0.5"/>
<rect x="557.583" y="88.25" width="28.8333" height="28.8333" stroke="white" stroke-width="0.5"/>
<rect x="557.583" y="117.583" width="28.8333" height="28.8333" stroke="white" stroke-width="0.5"/>
<rect x="557.583" y="146.917" width="28.8333" height="28.8333" stroke="white" stroke-width="0.5"/>
<rect x="557.583" y="176.25" width="28.8333" height="28.8333" stroke="white" stroke-width="0.5"/>
<rect x="557.583" y="205.583" width="28.8333" height="28.8333" stroke="white" stroke-width="0.5"/>
<rect x="557.583" y="234.917" width="28.8333" height="28.8333" stroke="white" stroke-width="0.5"/>
<rect x="557.583" y="264.25" width="28.8333" height="28.8333" stroke="white" stroke-width="0.5"/>
<rect x="557.583" y="293.583" width="28.8333" height="28.8333" stroke="white" stroke-width="0.5"/>
<rect x="557.583" y="322.917" width="28.8333" height="28.8333" stroke="white" stroke-width="0.5"/>
<rect x="557.583" y="352.25" width="28.8333" height="28.8333" stroke="white" stroke-width="0.5"/>
<rect x="557.583" y="381.583" width="28.8333" height="28.8333" stroke="white" stroke-width="0.5"/>
<rect x="586.917" y="0.25" width="28.8333" height="28.8333" stroke="white" stroke-width="0.5"/>
<rect x="586.917" y="29.5833" width="28.8333" height="28.8333" stroke="white" stroke-width="0.5"/>
<rect x="586.917" y="58.9167" width="28.8333" height="28.8333" stroke="white" stroke-width="0.5"/>
<rect x="586.917" y="88.25" width="28.8333" height="28.8333" stroke="white" stroke-width="0.5"/>
<rect x="586.917" y="117.583" width="28.8333" height="28.8333" stroke="white" stroke-width="0.5"/>
<rect x="586.917" y="146.917" width="28.8333" height="28.8333" stroke="white" stroke-width="0.5"/>
<rect x="586.917" y="176.25" width="28.8333" height="28.8333" stroke="white" stroke-width="0.5"/>
<rect x="586.917" y="205.583" width="28.8333" height="28.8333" stroke="white" stroke-width="0.5"/>
<rect x="586.917" y="234.917" width="28.8333" height="28.8333" stroke="white" stroke-width="0.5"/>
<rect x="586.917" y="264.25" width="28.8333" height="28.8333" stroke="white" stroke-width="0.5"/>
<rect x="586.917" y="293.583" width="28.8333" height="28.8333" stroke="white" stroke-width="0.5"/>
<rect x="586.917" y="322.917" width="28.8333" height="28.8333" stroke="white" stroke-width="0.5"/>
<rect x="586.917" y="352.25" width="28.8333" height="28.8333" stroke="white" stroke-width="0.5"/>
<rect x="586.917" y="381.583" width="28.8333" height="28.8333" stroke="white" stroke-width="0.5"/>
<rect x="616.25" y="0.25" width="28.8333" height="28.8333" stroke="white" stroke-width="0.5"/>
<rect x="616.25" y="29.5833" width="28.8333" height="28.8333" stroke="white" stroke-width="0.5"/>
<rect x="616.25" y="58.9167" width="28.8333" height="28.8333" stroke="white" stroke-width="0.5"/>
<rect x="616.25" y="88.25" width="28.8333" height="28.8333" stroke="white" stroke-width="0.5"/>
<rect x="616.25" y="117.583" width="28.8333" height="28.8333" stroke="white" stroke-width="0.5"/>
<rect x="616.25" y="146.917" width="28.8333" height="28.8333" stroke="white" stroke-width="0.5"/>
<rect x="616.25" y="176.25" width="28.8333" height="28.8333" stroke="white" stroke-width="0.5"/>
<rect x="616.25" y="205.583" width="28.8333" height="28.8333" stroke="white" stroke-width="0.5"/>
<rect x="616.25" y="234.917" width="28.8333" height="28.8333" stroke="white" stroke-width="0.5"/>
<rect x="616.25" y="264.25" width="28.8333" height="28.8333" stroke="white" stroke-width="0.5"/>
<rect x="616.25" y="293.583" width="28.8333" height="28.8333" stroke="white" stroke-width="0.5"/>
<rect x="616.25" y="322.917" width="28.8333" height="28.8333" stroke="white" stroke-width="0.5"/>
<rect x="616.25" y="352.25" width="28.8333" height="28.8333" stroke="white" stroke-width="0.5"/>
<rect x="616.25" y="381.583" width="28.8333" height="28.8333" stroke="white" stroke-width="0.5"/>
<rect x="645.583" y="0.25" width="28.8333" height="28.8333" stroke="white" stroke-width="0.5"/>
<rect x="645.583" y="29.5833" width="28.8333" height="28.8333" stroke="white" stroke-width="0.5"/>
<rect x="645.583" y="58.9167" width="28.8333" height="28.8333" stroke="white" stroke-width="0.5"/>
<rect x="645.583" y="88.25" width="28.8333" height="28.8333" stroke="white" stroke-width="0.5"/>
<rect x="645.583" y="117.583" width="28.8333" height="28.8333" stroke="white" stroke-width="0.5"/>
<rect x="645.583" y="146.917" width="28.8333" height="28.8333" stroke="white" stroke-width="0.5"/>
<rect x="645.583" y="176.25" width="28.8333" height="28.8333" stroke="white" stroke-width="0.5"/>
<rect x="645.583" y="205.583" width="28.8333" height="28.8333" stroke="white" stroke-width="0.5"/>
<rect x="645.583" y="234.917" width="28.8333" height="28.8333" stroke="white" stroke-width="0.5"/>
<rect x="645.583" y="264.25" width="28.8333" height="28.8333" stroke="white" stroke-width="0.5"/>
<rect x="645.583" y="293.583" width="28.8333" height="28.8333" stroke="white" stroke-width="0.5"/>
<rect x="645.583" y="322.917" width="28.8333" height="28.8333" stroke="white" stroke-width="0.5"/>
<rect x="645.583" y="352.25" width="28.8333" height="28.8333" stroke="white" stroke-width="0.5"/>
<rect x="645.583" y="381.583" width="28.8333" height="28.8333" stroke="white" stroke-width="0.5"/>
<rect x="674.917" y="0.25" width="28.8333" height="28.8333" stroke="white" stroke-width="0.5"/>
<rect x="674.917" y="29.5833" width="28.8333" height="28.8333" stroke="white" stroke-width="0.5"/>
<rect x="674.917" y="58.9167" width="28.8333" height="28.8333" stroke="white" stroke-width="0.5"/>
<rect x="674.917" y="88.25" width="28.8333" height="28.8333" stroke="white" stroke-width="0.5"/>
<rect x="674.917" y="117.583" width="28.8333" height="28.8333" stroke="white" stroke-width="0.5"/>
<rect x="674.917" y="146.917" width="28.8333" height="28.8333" stroke="white" stroke-width="0.5"/>
<rect x="674.917" y="176.25" width="28.8333" height="28.8333" stroke="white" stroke-width="0.5"/>
<rect x="674.917" y="205.583" width="28.8333" height="28.8333" stroke="white" stroke-width="0.5"/>
<rect x="674.917" y="234.917" width="28.8333" height="28.8333" stroke="white" stroke-width="0.5"/>
<rect x="674.917" y="264.25" width="28.8333" height="28.8333" stroke="white" stroke-width="0.5"/>
<rect x="674.917" y="293.583" width="28.8333" height="28.8333" stroke="white" stroke-width="0.5"/>
<rect x="674.917" y="322.917" width="28.8333" height="28.8333" stroke="white" stroke-width="0.5"/>
<rect x="674.917" y="352.25" width="28.8333" height="28.8333" stroke="white" stroke-width="0.5"/>
<rect x="674.917" y="381.583" width="28.8333" height="28.8333" stroke="white" stroke-width="0.5"/>
<rect x="704.25" y="0.25" width="28.8333" height="28.8333" stroke="white" stroke-width="0.5"/>
<rect x="704.25" y="29.5833" width="28.8333" height="28.8333" stroke="white" stroke-width="0.5"/>
<rect x="704.25" y="58.9167" width="28.8333" height="28.8333" stroke="white" stroke-width="0.5"/>
<rect x="704.25" y="88.25" width="28.8333" height="28.8333" stroke="white" stroke-width="0.5"/>
<rect x="704.25" y="117.583" width="28.8333" height="28.8333" stroke="white" stroke-width="0.5"/>
<rect x="704.25" y="146.917" width="28.8333" height="28.8333" stroke="white" stroke-width="0.5"/>
<rect x="704.25" y="176.25" width="28.8333" height="28.8333" stroke="white" stroke-width="0.5"/>
<rect x="704.25" y="205.583" width="28.8333" height="28.8333" stroke="white" stroke-width="0.5"/>
<rect x="704.25" y="234.917" width="28.8333" height="28.8333" stroke="white" stroke-width="0.5"/>
<rect x="704.25" y="264.25" width="28.8333" height="28.8333" stroke="white" stroke-width="0.5"/>
<rect x="704.25" y="293.583" width="28.8333" height="28.8333" stroke="white" stroke-width="0.5"/>
<rect x="704.25" y="322.917" width="28.8333" height="28.8333" stroke="white" stroke-width="0.5"/>
<rect x="704.25" y="352.25" width="28.8333" height="28.8333" stroke="white" stroke-width="0.5"/>
<rect x="704.25" y="381.583" width="28.8333" height="28.8333" stroke="white" stroke-width="0.5"/>
<rect x="733.583" y="0.25" width="28.8333" height="28.8333" stroke="white" stroke-width="0.5"/>
<rect x="733.583" y="29.5833" width="28.8333" height="28.8333" stroke="white" stroke-width="0.5"/>
<rect x="733.583" y="58.9167" width="28.8333" height="28.8333" stroke="white" stroke-width="0.5"/>
<rect x="733.583" y="88.25" width="28.8333" height="28.8333" stroke="white" stroke-width="0.5"/>
<rect x="733.583" y="117.583" width="28.8333" height="28.8333" stroke="white" stroke-width="0.5"/>
<rect x="733.583" y="146.917" width="28.8333" height="28.8333" stroke="white" stroke-width="0.5"/>
<rect x="733.583" y="176.25" width="28.8333" height="28.8333" stroke="white" stroke-width="0.5"/>
<rect x="733.583" y="205.583" width="28.8333" height="28.8333" stroke="white" stroke-width="0.5"/>
<rect x="733.583" y="234.917" width="28.8333" height="28.8333" stroke="white" stroke-width="0.5"/>
<rect x="733.583" y="264.25" width="28.8333" height="28.8333" stroke="white" stroke-width="0.5"/>
<rect x="733.583" y="293.583" width="28.8333" height="28.8333" stroke="white" stroke-width="0.5"/>
<rect x="733.583" y="322.917" width="28.8333" height="28.8333" stroke="white" stroke-width="0.5"/>
<rect x="733.583" y="352.25" width="28.8333" height="28.8333" stroke="white" stroke-width="0.5"/>
<rect x="733.583" y="381.583" width="28.8333" height="28.8333" stroke="white" stroke-width="0.5"/>
<rect x="762.917" y="0.25" width="28.8333" height="28.8333" stroke="white" stroke-width="0.5"/>
<rect x="762.917" y="29.5833" width="28.8333" height="28.8333" stroke="white" stroke-width="0.5"/>
<rect x="762.917" y="58.9167" width="28.8333" height="28.8333" stroke="white" stroke-width="0.5"/>
<rect x="762.917" y="88.25" width="28.8333" height="28.8333" stroke="white" stroke-width="0.5"/>
<rect x="762.917" y="117.583" width="28.8333" height="28.8333" stroke="white" stroke-width="0.5"/>
<rect x="762.917" y="146.917" width="28.8333" height="28.8333" stroke="white" stroke-width="0.5"/>
<rect x="762.917" y="176.25" width="28.8333" height="28.8333" stroke="white" stroke-width="0.5"/>
<rect x="762.917" y="205.583" width="28.8333" height="28.8333" stroke="white" stroke-width="0.5"/>
<rect x="762.917" y="234.917" width="28.8333" height="28.8333" stroke="white" stroke-width="0.5"/>
<rect x="762.917" y="264.25" width="28.8333" height="28.8333" stroke="white" stroke-width="0.5"/>
<rect x="762.917" y="293.583" width="28.8333" height="28.8333" stroke="white" stroke-width="0.5"/>
<rect x="762.917" y="322.917" width="28.8333" height="28.8333" stroke="white" stroke-width="0.5"/>
<rect x="762.917" y="352.25" width="28.8333" height="28.8333" stroke="white" stroke-width="0.5"/>
<rect x="762.917" y="381.583" width="28.8333" height="28.8333" stroke="white" stroke-width="0.5"/>
<rect x="792.25" y="0.25" width="28.8333" height="28.8333" stroke="white" stroke-width="0.5"/>
<rect x="792.25" y="29.5833" width="28.8333" height="28.8333" stroke="white" stroke-width="0.5"/>
<rect x="792.25" y="58.9167" width="28.8333" height="28.8333" stroke="white" stroke-width="0.5"/>
<rect x="792.25" y="88.25" width="28.8333" height="28.8333" stroke="white" stroke-width="0.5"/>
<rect x="792.25" y="117.583" width="28.8333" height="28.8333" stroke="white" stroke-width="0.5"/>
<rect x="792.25" y="146.917" width="28.8333" height="28.8333" stroke="white" stroke-width="0.5"/>
<rect x="792.25" y="176.25" width="28.8333" height="28.8333" stroke="white" stroke-width="0.5"/>
<rect x="792.25" y="205.583" width="28.8333" height="28.8333" stroke="white" stroke-width="0.5"/>
<rect x="792.25" y="234.917" width="28.8333" height="28.8333" stroke="white" stroke-width="0.5"/>
<rect x="792.25" y="264.25" width="28.8333" height="28.8333" stroke="white" stroke-width="0.5"/>
<rect x="792.25" y="293.583" width="28.8333" height="28.8333" stroke="white" stroke-width="0.5"/>
<rect x="792.25" y="322.917" width="28.8333" height="28.8333" stroke="white" stroke-width="0.5"/>
<rect x="792.25" y="352.25" width="28.8333" height="28.8333" stroke="white" stroke-width="0.5"/>
<rect x="792.25" y="381.583" width="28.8333" height="28.8333" stroke="white" stroke-width="0.5"/>
<rect x="821.583" y="0.25" width="28.8333" height="28.8333" stroke="white" stroke-width="0.5"/>
<rect x="821.583" y="29.5833" width="28.8333" height="28.8333" stroke="white" stroke-width="0.5"/>
<rect x="821.583" y="58.9167" width="28.8333" height="28.8333" stroke="white" stroke-width="0.5"/>
<rect x="821.583" y="88.25" width="28.8333" height="28.8333" stroke="white" stroke-width="0.5"/>
<rect x="821.583" y="117.583" width="28.8333" height="28.8333" stroke="white" stroke-width="0.5"/>
<rect x="821.583" y="146.917" width="28.8333" height="28.8333" stroke="white" stroke-width="0.5"/>
<rect x="821.583" y="176.25" width="28.8333" height="28.8333" stroke="white" stroke-width="0.5"/>
<rect x="821.583" y="205.583" width="28.8333" height="28.8333" stroke="white" stroke-width="0.5"/>
<rect x="821.583" y="234.917" width="28.8333" height="28.8333" stroke="white" stroke-width="0.5"/>
<rect x="821.583" y="264.25" width="28.8333" height="28.8333" stroke="white" stroke-width="0.5"/>
<rect x="821.583" y="293.583" width="28.8333" height="28.8333" stroke="white" stroke-width="0.5"/>
<rect x="821.583" y="322.917" width="28.8333" height="28.8333" stroke="white" stroke-width="0.5"/>
<rect x="821.583" y="352.25" width="28.8333" height="28.8333" stroke="white" stroke-width="0.5"/>
<rect x="821.583" y="381.583" width="28.8333" height="28.8333" stroke="white" stroke-width="0.5"/>
<rect x="850.917" y="0.25" width="28.8333" height="28.8333" stroke="white" stroke-width="0.5"/>
<rect x="850.917" y="29.5833" width="28.8333" height="28.8333" stroke="white" stroke-width="0.5"/>
<rect x="850.917" y="58.9167" width="28.8333" height="28.8333" stroke="white" stroke-width="0.5"/>
<rect x="850.917" y="88.25" width="28.8333" height="28.8333" stroke="white" stroke-width="0.5"/>
<rect x="850.917" y="117.583" width="28.8333" height="28.8333" stroke="white" stroke-width="0.5"/>
<rect x="850.917" y="146.917" width="28.8333" height="28.8333" stroke="white" stroke-width="0.5"/>
<rect x="850.917" y="176.25" width="28.8333" height="28.8333" stroke="white" stroke-width="0.5"/>
<rect x="850.917" y="205.583" width="28.8333" height="28.8333" stroke="white" stroke-width="0.5"/>
<rect x="850.917" y="234.917" width="28.8333" height="28.8333" stroke="white" stroke-width="0.5"/>
<rect x="850.917" y="264.25" width="28.8333" height="28.8333" stroke="white" stroke-width="0.5"/>
<rect x="850.917" y="293.583" width="28.8333" height="28.8333" stroke="white" stroke-width="0.5"/>
<rect x="850.917" y="322.917" width="28.8333" height="28.8333" stroke="white" stroke-width="0.5"/>
<rect x="850.917" y="352.25" width="28.8333" height="28.8333" stroke="white" stroke-width="0.5"/>
<rect x="850.917" y="381.583" width="28.8333" height="28.8333" stroke="white" stroke-width="0.5"/>
<rect x="880.25" y="0.25" width="28.8333" height="28.8333" stroke="white" stroke-width="0.5"/>
<rect x="880.25" y="29.5833" width="28.8333" height="28.8333" stroke="white" stroke-width="0.5"/>
<rect x="880.25" y="58.9167" width="28.8333" height="28.8333" stroke="white" stroke-width="0.5"/>
<rect x="880.25" y="88.25" width="28.8333" height="28.8333" stroke="white" stroke-width="0.5"/>
<rect x="880.25" y="117.583" width="28.8333" height="28.8333" stroke="white" stroke-width="0.5"/>
<rect x="880.25" y="146.917" width="28.8333" height="28.8333" stroke="white" stroke-width="0.5"/>
<rect x="880.25" y="176.25" width="28.8333" height="28.8333" stroke="white" stroke-width="0.5"/>
<rect x="880.25" y="205.583" width="28.8333" height="28.8333" stroke="white" stroke-width="0.5"/>
<rect x="880.25" y="234.917" width="28.8333" height="28.8333" stroke="white" stroke-width="0.5"/>
<rect x="880.25" y="264.25" width="28.8333" height="28.8333" stroke="white" stroke-width="0.5"/>
<rect x="880.25" y="293.583" width="28.8333" height="28.8333" stroke="white" stroke-width="0.5"/>
<rect x="880.25" y="322.917" width="28.8333" height="28.8333" stroke="white" stroke-width="0.5"/>
<rect x="880.25" y="352.25" width="28.8333" height="28.8333" stroke="white" stroke-width="0.5"/>
<rect x="880.25" y="381.583" width="28.8333" height="28.8333" stroke="white" stroke-width="0.5"/>
<rect x="909.583" y="0.25" width="28.8333" height="28.8333" stroke="white" stroke-width="0.5"/>
<rect x="909.583" y="29.5833" width="28.8333" height="28.8333" stroke="white" stroke-width="0.5"/>
<rect x="909.583" y="58.9167" width="28.8333" height="28.8333" stroke="white" stroke-width="0.5"/>
<rect x="909.583" y="88.25" width="28.8333" height="28.8333" stroke="white" stroke-width="0.5"/>
<rect x="909.583" y="117.583" width="28.8333" height="28.8333" stroke="white" stroke-width="0.5"/>
<rect x="909.583" y="146.917" width="28.8333" height="28.8333" stroke="white" stroke-width="0.5"/>
<rect x="909.583" y="176.25" width="28.8333" height="28.8333" stroke="white" stroke-width="0.5"/>
<rect x="909.583" y="205.583" width="28.8333" height="28.8333" stroke="white" stroke-width="0.5"/>
<rect x="909.583" y="234.917" width="28.8333" height="28.8333" stroke="white" stroke-width="0.5"/>
<rect x="909.583" y="264.25" width="28.8333" height="28.8333" stroke="white" stroke-width="0.5"/>
<rect x="909.583" y="293.583" width="28.8333" height="28.8333" stroke="white" stroke-width="0.5"/>
<rect x="909.583" y="322.917" width="28.8333" height="28.8333" stroke="white" stroke-width="0.5"/>
<rect x="909.583" y="352.25" width="28.8333" height="28.8333" stroke="white" stroke-width="0.5"/>
<rect x="909.583" y="381.583" width="28.8333" height="28.8333" stroke="white" stroke-width="0.5"/>
<rect x="938.917" y="0.25" width="28.8333" height="28.8333" stroke="white" stroke-width="0.5"/>
<rect x="938.917" y="29.5833" width="28.8333" height="28.8333" stroke="white" stroke-width="0.5"/>
<rect x="938.917" y="58.9167" width="28.8333" height="28.8333" stroke="white" stroke-width="0.5"/>
<rect x="938.917" y="88.25" width="28.8333" height="28.8333" stroke="white" stroke-width="0.5"/>
<rect x="938.917" y="117.583" width="28.8333" height="28.8333" stroke="white" stroke-width="0.5"/>
<rect x="938.917" y="146.917" width="28.8333" height="28.8333" stroke="white" stroke-width="0.5"/>
<rect x="938.917" y="176.25" width="28.8333" height="28.8333" stroke="white" stroke-width="0.5"/>
<rect x="938.917" y="205.583" width="28.8333" height="28.8333" stroke="white" stroke-width="0.5"/>
<rect x="938.917" y="234.917" width="28.8333" height="28.8333" stroke="white" stroke-width="0.5"/>
<rect x="938.917" y="264.25" width="28.8333" height="28.8333" stroke="white" stroke-width="0.5"/>
<rect x="938.917" y="293.583" width="28.8333" height="28.8333" stroke="white" stroke-width="0.5"/>
<rect x="938.917" y="322.917" width="28.8333" height="28.8333" stroke="white" stroke-width="0.5"/>
<rect x="938.917" y="352.25" width="28.8333" height="28.8333" stroke="white" stroke-width="0.5"/>
<rect x="938.917" y="381.583" width="28.8333" height="28.8333" stroke="white" stroke-width="0.5"/>
<rect x="968.25" y="0.25" width="28.8333" height="28.8333" stroke="white" stroke-width="0.5"/>
<rect x="968.25" y="29.5833" width="28.8333" height="28.8333" stroke="white" stroke-width="0.5"/>
<rect x="968.25" y="58.9167" width="28.8333" height="28.8333" stroke="white" stroke-width="0.5"/>
<rect x="968.25" y="88.25" width="28.8333" height="28.8333" stroke="white" stroke-width="0.5"/>
<rect x="968.25" y="117.583" width="28.8333" height="28.8333" stroke="white" stroke-width="0.5"/>
<rect x="968.25" y="146.917" width="28.8333" height="28.8333" stroke="white" stroke-width="0.5"/>
<rect x="968.25" y="176.25" width="28.8333" height="28.8333" stroke="white" stroke-width="0.5"/>
<rect x="968.25" y="205.583" width="28.8333" height="28.8333" stroke="white" stroke-width="0.5"/>
<rect x="968.25" y="234.917" width="28.8333" height="28.8333" stroke="white" stroke-width="0.5"/>
<rect x="968.25" y="264.25" width="28.8333" height="28.8333" stroke="white" stroke-width="0.5"/>
<rect x="968.25" y="293.583" width="28.8333" height="28.8333" stroke="white" stroke-width="0.5"/>
<rect x="968.25" y="322.917" width="28.8333" height="28.8333" stroke="white" stroke-width="0.5"/>
<rect x="968.25" y="352.25" width="28.8333" height="28.8333" stroke="white" stroke-width="0.5"/>
<rect x="968.25" y="381.583" width="28.8333" height="28.8333" stroke="white" stroke-width="0.5"/>
<rect x="997.583" y="0.25" width="28.8333" height="28.8333" stroke="white" stroke-width="0.5"/>
<rect x="997.583" y="29.5833" width="28.8333" height="28.8333" stroke="white" stroke-width="0.5"/>
<rect x="997.583" y="58.9167" width="28.8333" height="28.8333" stroke="white" stroke-width="0.5"/>
<rect x="997.583" y="88.25" width="28.8333" height="28.8333" stroke="white" stroke-width="0.5"/>
<rect x="997.583" y="117.583" width="28.8333" height="28.8333" stroke="white" stroke-width="0.5"/>
<rect x="997.583" y="146.917" width="28.8333" height="28.8333" stroke="white" stroke-width="0.5"/>
<rect x="997.583" y="176.25" width="28.8333" height="28.8333" stroke="white" stroke-width="0.5"/>
<rect x="997.583" y="205.583" width="28.8333" height="28.8333" stroke="white" stroke-width="0.5"/>
<rect x="997.583" y="234.917" width="28.8333" height="28.8333" stroke="white" stroke-width="0.5"/>
<rect x="997.583" y="264.25" width="28.8333" height="28.8333" stroke="white" stroke-width="0.5"/>
<rect x="997.583" y="293.583" width="28.8333" height="28.8333" stroke="white" stroke-width="0.5"/>
<rect x="997.583" y="322.917" width="28.8333" height="28.8333" stroke="white" stroke-width="0.5"/>
<rect x="997.583" y="352.25" width="28.8333" height="28.8333" stroke="white" stroke-width="0.5"/>
<rect x="997.583" y="381.583" width="28.8333" height="28.8333" stroke="white" stroke-width="0.5"/>
<rect x="1026.92" y="0.25" width="28.8333" height="28.8333" stroke="white" stroke-width="0.5"/>
<rect x="1026.92" y="29.5833" width="28.8333" height="28.8333" stroke="white" stroke-width="0.5"/>
<rect x="1026.92" y="58.9167" width="28.8333" height="28.8333" stroke="white" stroke-width="0.5"/>
<rect x="1026.92" y="88.25" width="28.8333" height="28.8333" stroke="white" stroke-width="0.5"/>
<rect x="1026.92" y="117.583" width="28.8333" height="28.8333" stroke="white" stroke-width="0.5"/>
<rect x="1026.92" y="146.917" width="28.8333" height="28.8333" stroke="white" stroke-width="0.5"/>
<rect x="1026.92" y="176.25" width="28.8333" height="28.8333" stroke="white" stroke-width="0.5"/>
<rect x="1026.92" y="205.583" width="28.8333" height="28.8333" stroke="white" stroke-width="0.5"/>
<rect x="1026.92" y="234.917" width="28.8333" height="28.8333" stroke="white" stroke-width="0.5"/>
<rect x="1026.92" y="264.25" width="28.8333" height="28.8333" stroke="white" stroke-width="0.5"/>
<rect x="1026.92" y="293.583" width="28.8333" height="28.8333" stroke="white" stroke-width="0.5"/>
<rect x="1026.92" y="322.917" width="28.8333" height="28.8333" stroke="white" stroke-width="0.5"/>
<rect x="1026.92" y="352.25" width="28.8333" height="28.8333" stroke="white" stroke-width="0.5"/>
<rect x="1026.92" y="381.583" width="28.8333" height="28.8333" stroke="white" stroke-width="0.5"/>
</svg>
