<svg xmlns="http://www.w3.org/2000/svg" viewBox="0 0 205.43 399.31"><defs><style>.cls-1{fill:none;stroke:#fff;stroke-linejoin:round;stroke-width:5px;}</style></defs><title>Fichier 1</title><g id="Calque_2" data-name="Calque 2"><g id="face"><polyline class="cls-1" points="2.5 95.79 2.5 373.83 43.86 350.86 44.12 257.41 122.25 211.45 123.1 304.73 164.29 280.9 164.29 2.5 2.5 95.79"/><polyline class="cls-1" points="42.59 119.54 123.27 73.07 123.27 166.51 42.59 211.45 42.59 119.54"/></g><g id="dessous"><polygon id="dessous-2" data-name="dessous" class="cls-1" points="2.5 373.83 42.59 396.81 83.39 373.83 43.86 350.86 2.5 373.83"/><polygon id="dessous-3" data-name="dessous" class="cls-1" points="123.1 304.73 164.29 327.37 202.93 304.73 164.29 280.9 123.1 304.73"/><polygon id="dessous-4" data-name="dessous" class="cls-1" points="2.5 95.79 42.59 119.54 202.93 25.32 164.29 2.5 2.5 95.79"/><polyline class="cls-1" points="42.59 211.45 123.27 166.51 164.29 188.17 82.93 234.58 42.59 211.45"/><polyline class="cls-1" points="42.59 119.54 83.39 142.26 164.29 96.56 123.27 73.07 42.59 119.54"/><polygon class="cls-1" points="44.12 257.41 82.93 280.9 164.29 234.58 122.25 211.45 44.12 257.41"/></g><g id="côté"><polygon class="cls-1" points="83.39 142.26 82.93 234.58 42.59 211.45 42.59 119.54 83.39 142.26"/><polygon class="cls-1" points="44.12 257.41 82.93 280.9 83.39 373.83 43.86 350.86 44.12 257.41"/><polygon class="cls-1" points="164.29 2.5 202.93 25.32 202.93 304.73 164.29 280.9 164.29 2.5"/><polygon class="cls-1" points="123.27 73.07 164.29 96.56 164.29 188.17 123.27 166.51 123.27 73.07"/><polygon class="cls-1" points="122.25 211.45 123.1 304.73 164.29 327.37 164.29 234.58 122.25 211.45"/></g></g></svg>